<svg width="40" height="40" xmlns="http://www.w3.org/2000/svg">

 <g>
  <title>Layer 1</title>
  <ellipse stroke-width="0" ry="18" rx="18" id="svg_2" cy="20" cx="20" stroke="#000" fill="#6a9500"/>
  <line id="svg_7" y2="14.30107" x2="46.77419" y1="14.30107" x1="46.66666" stroke="#000" fill="none"/>
  <rect stroke-width="0" transform="rotate(38, 15.7079, 26.2788)" rx="2" id="svg_8" height="17.51417" width="3.49617" y="17.52176" x="13.9598" stroke="#000" fill="#ffffff"/>
  <text transform="rotate(38, 25.7874, 13.3508) matrix(0.33829, 0, 0, 0.386665, 14.0068, -1.61473)" font-style="normal" font-weight="normal" xml:space="preserve" text-anchor="start" font-family="sans-serif" font-size="24" id="svg_12" y="47.03367" x="16.80326" stroke-width="0" stroke="#000" fill="#ffffff">{...}</text>
  <path id="svg_18" d="m59.70499,24.76249l0.56913,0l0.17587,-0.54067l0.17587,0.54067l0.56913,0l-0.46044,0.33415l0.17588,0.54067l-0.46044,-0.33416l-0.46044,0.33416l0.17588,-0.54067l-0.46044,-0.33415z" stroke-width="0" stroke="#000" fill="#ffffff"/>
  <path id="svg_19" d="m57.45822,19.73399l0.56913,0l0.17587,-0.54067l0.17587,0.54067l0.56913,0l-0.46044,0.33415l0.17588,0.54067l-0.46044,-0.33416l-0.46044,0.33416l0.17588,-0.54067l-0.46044,-0.33415z" stroke-width="0" stroke="#000" fill="#ffffff"/>
 </g>
</svg>